#include <pitches.h>
#include <Arduino.h>
#include "pins.h"
#define REST 0

void was_wollen_wir_trinken() {
  int melody[] = {
    NOTE_A4, NOTE_C5, NOTE_D5, NOTE_E5, NOTE_E5, NOTE_F5, NOTE_D5, NOTE_E5, REST,
    NOTE_D5, NOTE_D5, NOTE_C5, NOTE_B4, NOTE_C5, NOTE_A4, REST, NOTE_A4,
    NOTE_D5, NOTE_D5, NOTE_C5, NOTE_B4,
    NOTE_D5, NOTE_D5, NOTE_C5, NOTE_B4,
    NOTE_C5, NOTE_A4, REST, NOTE_G4, NOTE_A4,
  };
  
  int durations[] = {
    4, 4, 4, 3, 3, 4, 4, 2, 4,
    4, 6, 6, 6, 2, 3, 8, 4,
    4, 4, 4, 4,
    4, 6, 6, 6,
    2, 3, 8, 2, 1
  };
  
  int size = sizeof(durations) / sizeof(int);

  for (int note = 0; note < size; note++) {
    int duration = 1000 / durations[note];
    tone(BUZZER_PIN, melody[note], duration);
    int pauseBetweenNotes = duration * 1.30;
    delay(pauseBetweenNotes);
    noTone(BUZZER_PIN);
  }
}

void never_gonna_give_you_up() {
  int melody[] = {
    NOTE_A4, REST, NOTE_B4, REST, NOTE_C5, REST, NOTE_A4, REST,
    NOTE_D5, REST, NOTE_E5, REST, NOTE_D5, REST,
    NOTE_G4, NOTE_A4, NOTE_C5, NOTE_A4, NOTE_E5, NOTE_E5, REST,
    NOTE_D5, REST,
    NOTE_G4, NOTE_A4, NOTE_C5, NOTE_A4, NOTE_D5, NOTE_D5, REST,
    NOTE_C5, REST, NOTE_B4, NOTE_A4, REST,
    NOTE_G4, NOTE_A4, NOTE_C5, NOTE_A4, NOTE_C5, NOTE_D5, REST,
    NOTE_B4, NOTE_A4, NOTE_G4, REST, NOTE_G4, REST, NOTE_D5, REST, NOTE_C5, REST,
    NOTE_G4, NOTE_A4, NOTE_C5, NOTE_A4, NOTE_E5, NOTE_E5, REST,
    NOTE_D5, REST,
    NOTE_G4, NOTE_A4, NOTE_C5, NOTE_A4, NOTE_G5, NOTE_B4, REST,
    NOTE_C5, REST, NOTE_B4, NOTE_A4, REST,
    NOTE_G4, NOTE_A4, NOTE_C5, NOTE_A4, NOTE_C5, NOTE_D5, REST,
    NOTE_B4, NOTE_A4, NOTE_G4, REST, NOTE_G4, REST, NOTE_D5, REST, NOTE_C5, REST,
    NOTE_C5, REST, NOTE_D5, REST, NOTE_G4, REST, NOTE_D5, REST, NOTE_E5, REST,
    NOTE_G5, NOTE_F5, NOTE_E5, REST,
    NOTE_C5, REST, NOTE_D5, REST, NOTE_G4, REST
  };

  int durations[] = {
    8, 8, 8, 8, 8, 8, 8, 4,
    8, 8, 8, 8, 2, 2,
    8, 8, 8, 8, 2, 8, 8,
    2, 8,
    8, 8, 8, 8, 2, 8, 8,
    4, 8, 8, 8, 8,
    8, 8, 8, 8, 2, 8, 8,
    2, 8, 4, 8, 8, 8, 8, 8, 1, 4,
    8, 8, 8, 8, 2, 8, 8,
    2, 8,
    8, 8, 8, 8, 2, 8, 8,
    2, 8, 8, 8, 8,
    8, 8, 8, 8, 2, 8, 8,
    4, 8, 3, 8, 8, 8, 8, 8, 1, 4,
    2, 6, 2, 6, 4, 4, 2, 6, 2, 3,
    8, 8, 8, 8,
    2, 6, 2, 6, 2, 1
  };
  
  int size = sizeof(durations) / sizeof(int);

  for (int note = 0; note < size; note++) {
    int duration = 1000 / durations[note];
    tone(BUZZER_PIN, melody[note], duration);
    int pauseBetweenNotes = duration * 1.30;
    delay(pauseBetweenNotes);
    noTone(BUZZER_PIN);
  }
}
void nokia(){
int melody[] = {
  NOTE_E5, NOTE_D5, NOTE_FS4, NOTE_GS4, 
  NOTE_CS5, NOTE_B4, NOTE_D4, NOTE_E4, 
  NOTE_B4, NOTE_A4, NOTE_CS4, NOTE_E4,
  NOTE_A4
};

int durations[] = {
  8, 8, 4, 4,
  8, 8, 4, 4,
  8, 8, 4, 4,
  2
};
  int size = sizeof(durations) / sizeof(int);

  for (int note = 0; note < size; note++) {
    //to calculate the note duration, take one second divided by the note type.
    //e.g. quarter note = 1000 / 4, eighth note = 1000/8, etc.
    int duration = 1000 / durations[note];
    tone(BUZZER_PIN, melody[note], duration);

    //to distinguish the notes, set a minimum time between them.
    //the note's duration + 30% seems to work well:
    int pauseBetweenNotes = duration * 1.30;
    delay(pauseBetweenNotes);
    
    //stop the tone playing:
    noTone(BUZZER_PIN);
  }
}
void doom(){
  int melody[] = {
  NOTE_E2, NOTE_E2, NOTE_E3, NOTE_E2, NOTE_E2, NOTE_D3, NOTE_E2, NOTE_E2, 
  NOTE_C3, NOTE_E2, NOTE_E2, NOTE_AS2, NOTE_E2, NOTE_E2, NOTE_B2, NOTE_C3,
  NOTE_E2, NOTE_E2, NOTE_E3, NOTE_E2, NOTE_E2, NOTE_D3, NOTE_E2, NOTE_E2,
  NOTE_C3, NOTE_E2, NOTE_E2, NOTE_AS2,
  
  NOTE_E2, NOTE_E2, NOTE_E3, NOTE_E2, NOTE_E2, NOTE_D3, NOTE_E2, NOTE_E2, 
  NOTE_C3, NOTE_E2, NOTE_E2, NOTE_AS2, NOTE_E2, NOTE_E2, NOTE_B2, NOTE_C3,
  NOTE_E2, NOTE_E2, NOTE_E3, NOTE_E2, NOTE_E2, NOTE_D3, NOTE_E2, NOTE_E2,
  NOTE_C3, NOTE_E2, NOTE_E2, NOTE_AS2,
  
  NOTE_E2, NOTE_E2, NOTE_E3, NOTE_E2, NOTE_E2, NOTE_D3, NOTE_E2, NOTE_E2, 
  NOTE_C3, NOTE_E2, NOTE_E2, NOTE_AS2, NOTE_E2, NOTE_E2, NOTE_B2, NOTE_C3,
  NOTE_E2, NOTE_E2, NOTE_E3, NOTE_E2, NOTE_E2, NOTE_D3, NOTE_E2, NOTE_E2,
  NOTE_C3, NOTE_E2, NOTE_E2, NOTE_AS2,
  
  NOTE_E2, NOTE_E2, NOTE_E3, NOTE_E2, NOTE_E2, NOTE_D3, NOTE_E2, NOTE_E2, 
  NOTE_C3, NOTE_E2, NOTE_E2, NOTE_AS2, NOTE_E2, NOTE_E2, NOTE_B2, NOTE_C3,
  NOTE_E2, NOTE_E2, NOTE_E3, NOTE_E2, NOTE_E2, NOTE_D3, NOTE_E2, NOTE_E2,
  NOTE_FS3, NOTE_D3, NOTE_B2, NOTE_A3, NOTE_FS3, NOTE_B2, NOTE_D3, NOTE_FS3, NOTE_A3, NOTE_FS3, NOTE_D3, NOTE_B2,
  
  NOTE_E2, NOTE_E2, NOTE_E3, NOTE_E2, NOTE_E2, NOTE_D3, NOTE_E2, NOTE_E2, 
  NOTE_C3, NOTE_E2, NOTE_E2, NOTE_AS2, NOTE_E2, NOTE_E2, NOTE_B2, NOTE_C3,
  NOTE_E2, NOTE_E2, NOTE_E3, NOTE_E2, NOTE_E2, NOTE_D3, NOTE_E2, NOTE_E2,
  NOTE_C3, NOTE_E2, NOTE_E2, NOTE_AS2,
  
  NOTE_E2, NOTE_E2, NOTE_E3, NOTE_E2, NOTE_E2, NOTE_D3, NOTE_E2, NOTE_E2, 
  NOTE_C3, NOTE_E2, NOTE_E2, NOTE_AS2, NOTE_E2, NOTE_E2, NOTE_B2, NOTE_C3,
  NOTE_E2, NOTE_E2, NOTE_E3, NOTE_E2, NOTE_E2, NOTE_D3, NOTE_E2, NOTE_E2,
  NOTE_B3, NOTE_G3, NOTE_E3, NOTE_G3, NOTE_B3, NOTE_E4, NOTE_G3, NOTE_B3, NOTE_E4, NOTE_B3, NOTE_G4, NOTE_B4,
  
  NOTE_A2, NOTE_A2, NOTE_A3, NOTE_A2, NOTE_A2, NOTE_G3, NOTE_A2, NOTE_A2, 
  NOTE_F3, NOTE_A2, NOTE_A2, NOTE_DS3, NOTE_A2, NOTE_A2, NOTE_E3, NOTE_F3,
  NOTE_A2, NOTE_A2, NOTE_A3, NOTE_A2, NOTE_A2, NOTE_G3, NOTE_A2, NOTE_A2,
  NOTE_F3, NOTE_A2, NOTE_A2, NOTE_DS3,
  
  NOTE_A2, NOTE_A2, NOTE_A3, NOTE_A2, NOTE_A2, NOTE_G3, NOTE_A2, NOTE_A2, 
  NOTE_F3, NOTE_A2, NOTE_A2, NOTE_DS3, NOTE_A2, NOTE_A2, NOTE_E3, NOTE_F3,
  NOTE_A2, NOTE_A2, NOTE_A3, NOTE_A2, NOTE_A2, NOTE_G3, NOTE_A2, NOTE_A2,
  NOTE_A3, NOTE_F3, NOTE_D3, NOTE_A3, NOTE_F3, NOTE_D3, NOTE_C4, NOTE_A3, NOTE_F3, NOTE_A3, NOTE_F3, NOTE_D3,
  
  NOTE_E2, NOTE_E2, NOTE_E3, NOTE_E2, NOTE_E2, NOTE_D3, NOTE_E2, NOTE_E2, 
  NOTE_C3, NOTE_E2, NOTE_E2, NOTE_AS2, NOTE_E2, NOTE_E2, NOTE_B2, NOTE_C3,
  NOTE_E2, NOTE_E2, NOTE_E3, NOTE_E2, NOTE_E2, NOTE_D3, NOTE_E2, NOTE_E2,
  NOTE_C3, NOTE_E2, NOTE_E2, NOTE_AS2,
  
  NOTE_E2, NOTE_E2, NOTE_E3, NOTE_E2, NOTE_E2, NOTE_D3, NOTE_E2, NOTE_E2, 
  NOTE_C3, NOTE_E2, NOTE_E2, NOTE_AS2, NOTE_E2, NOTE_E2, NOTE_B2, NOTE_C3,
  NOTE_E2, NOTE_E2, NOTE_E3, NOTE_E2, NOTE_E2, NOTE_D3, NOTE_E2, NOTE_E2,
  NOTE_C3, NOTE_E2, NOTE_E2, NOTE_AS2,
  
  NOTE_CS3, NOTE_CS3, NOTE_CS4, NOTE_CS3, NOTE_CS3, NOTE_B3, NOTE_CS3, NOTE_CS3, 
  NOTE_A3, NOTE_CS3, NOTE_CS3, NOTE_G3, NOTE_CS3, NOTE_CS3, NOTE_GS3, NOTE_A3,
  NOTE_B2, NOTE_B2, NOTE_B3, NOTE_B2, NOTE_B2, NOTE_A3, NOTE_B2, NOTE_B2,
  NOTE_G3, NOTE_B2, NOTE_B2, NOTE_F3,
  
  NOTE_E2, NOTE_E2, NOTE_E3, NOTE_E2, NOTE_E2, NOTE_D3, NOTE_E2, NOTE_E2, 
  NOTE_C3, NOTE_E2, NOTE_E2, NOTE_AS2, NOTE_E2, NOTE_E2, NOTE_B2, NOTE_C3,
  NOTE_E2, NOTE_E2, NOTE_E3, NOTE_E2, NOTE_E2, NOTE_D3, NOTE_E2, NOTE_E2,
  NOTE_B3, NOTE_G3, NOTE_E3, NOTE_G3, NOTE_B3, NOTE_E4, NOTE_G3, NOTE_B3, NOTE_E4, NOTE_B3, NOTE_G4, NOTE_B4,
  
  NOTE_E2, NOTE_E2, NOTE_E3, NOTE_E2, NOTE_E2, NOTE_D3, NOTE_E2, NOTE_E2, 
  NOTE_C3, NOTE_E2, NOTE_E2, NOTE_AS2, NOTE_E2, NOTE_E2, NOTE_B2, NOTE_C3,
  NOTE_E2, NOTE_E2, NOTE_E3, NOTE_E2, NOTE_E2, NOTE_D3, NOTE_E2, NOTE_E2,
  NOTE_C3, NOTE_E2, NOTE_E2, NOTE_AS2,
  
  NOTE_E2, NOTE_E2, NOTE_E3, NOTE_E2, NOTE_E2, NOTE_D3, NOTE_E2, NOTE_E2, 
  NOTE_C3, NOTE_E2, NOTE_E2, NOTE_AS2, NOTE_E2, NOTE_E2, NOTE_B2, NOTE_C3,
  NOTE_E2, NOTE_E2, NOTE_E3, NOTE_E2, NOTE_E2, NOTE_D3, NOTE_E2, NOTE_E2,
  NOTE_FS3, NOTE_DS3, NOTE_B2, NOTE_FS3, NOTE_DS3, NOTE_B2, NOTE_G3, NOTE_D3, NOTE_B2, NOTE_DS4, NOTE_DS3, NOTE_B2,
  
  NOTE_E2, NOTE_E2, NOTE_E3, NOTE_E2, NOTE_E2, NOTE_D3, NOTE_E2, NOTE_E2, 
  NOTE_C3, NOTE_E2, NOTE_E2, NOTE_AS2, NOTE_E2, NOTE_E2, NOTE_B2, NOTE_C3,
  NOTE_E2, NOTE_E2, NOTE_E3, NOTE_E2, NOTE_E2, NOTE_D3, NOTE_E2, NOTE_E2,
  NOTE_C3, NOTE_E2, NOTE_E2, NOTE_AS2,
  
  NOTE_E2, NOTE_E2, NOTE_E3, NOTE_E2, NOTE_E2, NOTE_D3, NOTE_E2, NOTE_E2, 
  NOTE_C3, NOTE_E2, NOTE_E2, NOTE_AS2, NOTE_E2, NOTE_E2, NOTE_B2, NOTE_C3,
  NOTE_E2, NOTE_E2, NOTE_E3, NOTE_E2, NOTE_E2, NOTE_D3, NOTE_E2, NOTE_E2,
  NOTE_E4, NOTE_B3, NOTE_G3, NOTE_G4, NOTE_E4, NOTE_G3, NOTE_B3, NOTE_D4, NOTE_E4, NOTE_G4, NOTE_E4, NOTE_G3,  
  
  NOTE_E2, NOTE_E2, NOTE_E3, NOTE_E2, NOTE_E2, NOTE_D3, NOTE_E2, NOTE_E2, 
  NOTE_C3, NOTE_E2, NOTE_E2, NOTE_AS2, NOTE_E2, NOTE_E2, NOTE_B2, NOTE_C3,
  NOTE_E2, NOTE_E2, NOTE_E3, NOTE_E2, NOTE_E2, NOTE_D3, NOTE_E2, NOTE_E2,
  NOTE_C3, NOTE_E2, NOTE_E2, NOTE_AS2,
  
  NOTE_A2, NOTE_A2, NOTE_A3, NOTE_A2, NOTE_A2, NOTE_G3, NOTE_A2, NOTE_A2, 
  NOTE_F3, NOTE_A2, NOTE_A2, NOTE_DS3, NOTE_A2, NOTE_A2, NOTE_E3, NOTE_F3,
  NOTE_A2, NOTE_A2, NOTE_A3, NOTE_A2, NOTE_A2, NOTE_G3, NOTE_A2, NOTE_A2,
  NOTE_A3, NOTE_F3, NOTE_D3, NOTE_A3, NOTE_F3, NOTE_D3, NOTE_C4, NOTE_A3, NOTE_F3, NOTE_A3, NOTE_F3, NOTE_D3,
  
  NOTE_E2, NOTE_E2, NOTE_E3, NOTE_E2, NOTE_E2, NOTE_D3, NOTE_E2, NOTE_E2, 
  NOTE_C3, NOTE_E2, NOTE_E2, NOTE_AS2, NOTE_E2, NOTE_E2, NOTE_B2, NOTE_C3,
  NOTE_E2, NOTE_E2, NOTE_E3, NOTE_E2, NOTE_E2, NOTE_D3, NOTE_E2, NOTE_E2,
  NOTE_C3, NOTE_E2, NOTE_E2, NOTE_AS2,
  
  NOTE_E2, NOTE_E2, NOTE_E3, NOTE_E2, NOTE_E2, NOTE_D3, NOTE_E2, NOTE_E2, 
  NOTE_C3, NOTE_E2, NOTE_E2, NOTE_AS2, NOTE_E2, NOTE_E2, NOTE_B2, NOTE_C3,
  NOTE_E2, NOTE_E2, NOTE_E3, NOTE_E2, NOTE_E2, NOTE_D3, NOTE_E2, NOTE_E2,
  NOTE_C3, NOTE_E2, NOTE_E2, NOTE_AS2,
  
  NOTE_E2, NOTE_E2, NOTE_E3, NOTE_E2, NOTE_E2, NOTE_D3, NOTE_E2, NOTE_E2, 
  NOTE_C3, NOTE_E2, NOTE_E2, NOTE_AS2, NOTE_E2, NOTE_E2, NOTE_B2, NOTE_C3,
  NOTE_E2, NOTE_E2, NOTE_E3, NOTE_E2, NOTE_E2, NOTE_D3, NOTE_E2, NOTE_E2,
  NOTE_C3, NOTE_E2, NOTE_E2, NOTE_AS2,
  
  NOTE_E2, NOTE_E2, NOTE_E3, NOTE_E2, NOTE_E2, NOTE_D3, NOTE_E2, NOTE_E2, 
  NOTE_C3, NOTE_E2, NOTE_E2, NOTE_AS2, NOTE_E2, NOTE_E2, NOTE_B2, NOTE_C3,
  NOTE_E2, NOTE_E2, NOTE_E3, NOTE_E2, NOTE_E2, NOTE_D3, NOTE_E2, NOTE_E2,
  NOTE_B3, NOTE_G3, NOTE_E3, NOTE_B2, NOTE_E3, NOTE_G3, NOTE_C4, NOTE_B3, NOTE_G3, NOTE_B3, NOTE_G3, NOTE_E3
};

int durations[] = {
  8, 8, 8, 8, 8, 8, 8, 8, 
  8, 8, 8, 8, 8, 8, 8, 8,
  8, 8, 8, 8, 8, 8, 8, 8,
  8, 8, 8, 2,
  
  8, 8, 8, 8, 8, 8, 8, 8, 
  8, 8, 8, 8, 8, 8, 8, 8,
  8, 8, 8, 8, 8, 8, 8, 8,
  8, 8, 8, 2,
  
  8, 8, 8, 8, 8, 8, 8, 8, 
  8, 8, 8, 8, 8, 8, 8, 8,
  8, 8, 8, 8, 8, 8, 8, 8,
  8, 8, 8, 2,
  
  8, 8, 8, 8, 8, 8, 8, 8, 
  8, 8, 8, 8, 8, 8, 8, 8,
  8, 8, 8, 8, 8, 8, 8, 8,
  16, 16, 16, 16, 16, 16, 16, 16, 16, 16, 16, 16,
  
  8, 8, 8, 8, 8, 8, 8, 8, 
  8, 8, 8, 8, 8, 8, 8, 8,
  8, 8, 8, 8, 8, 8, 8, 8,
  8, 8, 8, 2,
  
  8, 8, 8, 8, 8, 8, 8, 8, 
  8, 8, 8, 8, 8, 8, 8, 8,
  8, 8, 8, 8, 8, 8, 8, 8,
  16, 16, 16, 16, 16, 16, 16, 16, 16, 16, 16, 16,
  
  8, 8, 8, 8, 8, 8, 8, 8, 
  8, 8, 8, 8, 8, 8, 8, 8,
  8, 8, 8, 8, 8, 8, 8, 8,
  8, 8, 8, 2,
  
  8, 8, 8, 8, 8, 8, 8, 8, 
  8, 8, 8, 8, 8, 8, 8, 8,
  8, 8, 8, 8, 8, 8, 8, 8,
  16, 16, 16, 16, 16, 16, 16, 16, 16, 16, 16, 16,
  
  8, 8, 8, 8, 8, 8, 8, 8, 
  8, 8, 8, 8, 8, 8, 8, 8,
  8, 8, 8, 8, 8, 8, 8, 8,
  8, 8, 8, 2,
  
  8, 8, 8, 8, 8, 8, 8, 8, 
  8, 8, 8, 8, 8, 8, 8, 8,
  8, 8, 8, 8, 8, 8, 8, 8,
  8, 8, 8, 2,
  
  8, 8, 8, 8, 8, 8, 8, 8, 
  8, 8, 8, 8, 8, 8, 8, 8,
  8, 8, 8, 8, 8, 8, 8, 8,
  8, 8, 8, 2,
  
  8, 8, 8, 8, 8, 8, 8, 8, 
  8, 8, 8, 8, 8, 8, 8, 8,
  8, 8, 8, 8, 8, 8, 8, 8,
  16, 16, 16, 16, 16, 16, 16, 16, 16, 16, 16, 16,
  
  8, 8, 8, 8, 8, 8, 8, 8, 
  8, 8, 8, 8, 8, 8, 8, 8,
  8, 8, 8, 8, 8, 8, 8, 8,
  8, 8, 8, 2,
  
  8, 8, 8, 8, 8, 8, 8, 8, 
  8, 8, 8, 8, 8, 8, 8, 8,
  8, 8, 8, 8, 8, 8, 8, 8,
  16, 16, 16, 16, 16, 16, 16, 16, 16, 16, 16, 16,
  
  8, 8, 8, 8, 8, 8, 8, 8, 
  8, 8, 8, 8, 8, 8, 8, 8,
  8, 8, 8, 8, 8, 8, 8, 8,
  8, 8, 8, 2,
  
  8, 8, 8, 8, 8, 8, 8, 8, 
  8, 8, 8, 8, 8, 8, 8, 8,
  8, 8, 8, 8, 8, 8, 8, 8,
  16, 16, 16, 16, 16, 16, 16, 16, 16, 16, 16, 16,  
  
  8, 8, 8, 8, 8, 8, 8, 8, 
  8, 8, 8, 8, 8, 8, 8, 8,
  8, 8, 8, 8, 8, 8, 8, 8,
  8, 8, 8, 2,
  
  8, 8, 8, 8, 8, 8, 8, 8, 
  8, 8, 8, 8, 8, 8, 8, 8,
  8, 8, 8, 8, 8, 8, 8, 8,
  16, 16, 16, 16, 16, 16, 16, 16, 16, 16, 16, 16,
  
  8, 8, 8, 8, 8, 8, 8, 8, 
  8, 8, 8, 8, 8, 8, 8, 8,
  8, 8, 8, 8, 8, 8, 8, 8,
  8, 8, 8, 2,
  
  8, 8, 8, 8, 8, 8, 8, 8, 
  8, 8, 8, 8, 8, 8, 8, 8,
  8, 8, 8, 8, 8, 8, 8, 8,
  8, 8, 8, 2,
  
  8, 8, 8, 8, 8, 8, 8, 8, 
  8, 8, 8, 8, 8, 8, 8, 8,
  8, 8, 8, 8, 8, 8, 8, 8,
  8, 8, 8, 2,
  
  8, 8, 8, 8, 8, 8, 8, 8, 
  8, 8, 8, 8, 8, 8, 8, 8,
  8, 8, 8, 8, 8, 8, 8, 8,
  16, 16, 16, 16, 16, 16, 16, 16, 16, 16, 16, 16
};
  int size = sizeof(durations) / sizeof(int);

  for (int note = 0; note < size; note++) {
    //to calculate the note duration, take one second divided by the note type.
    //e.g. quarter note = 1000 / 4, eighth note = 1000/8, etc.
    int duration = 1000 / durations[note];
    tone(BUZZER_PIN, melody[note], duration);

    //to distinguish the notes, set a minimum time between them.
    //the note's duration + 30% seems to work well:
    int pauseBetweenNotes = duration * 1.30;
    delay(pauseBetweenNotes);
    
    //stop the tone playing:
    noTone(BUZZER_PIN);
  }
}